<mxfile host="Electron" modified="2025-08-18T07:03:36.060Z" agent="Mozilla/5.0 (Macintosh; Intel Mac OS X 10_15_7) AppleWebKit/537.36 (KHTML, like Gecko) draw.io/24.6.4 Chrome/124.0.6367.207 Electron/30.0.6 Safari/537.36" etag="ydMg9K0u67nYGJpSGWSQ" version="24.6.4" type="device">
  <diagram name="Seite-1" id="QKfuSPyuFdd52cTxMT8o">
    <mxGraphModel dx="2492" dy="684" grid="1" gridSize="10" guides="1" tooltips="1" connect="1" arrows="1" fold="1" page="1" pageScale="1" pageWidth="827" pageHeight="1169" math="0" shadow="0">
      <root>
        <mxCell id="0" />
        <mxCell id="1" parent="0" />
        <mxCell id="lbC8SEz6f3Qk2DePefC6-8" style="edgeStyle=orthogonalEdgeStyle;rounded=0;orthogonalLoop=1;jettySize=auto;html=1;exitX=0.5;exitY=1;exitDx=0;exitDy=0;" edge="1" parent="1">
          <mxGeometry relative="1" as="geometry">
            <mxPoint x="-690.0000000000002" y="380" as="sourcePoint" />
            <mxPoint x="-690.0000000000002" y="380" as="targetPoint" />
          </mxGeometry>
        </mxCell>
        <mxCell id="lbC8SEz6f3Qk2DePefC6-39" style="edgeStyle=orthogonalEdgeStyle;rounded=0;orthogonalLoop=1;jettySize=auto;html=1;" edge="1" parent="1" source="lbC8SEz6f3Qk2DePefC6-14" target="lbC8SEz6f3Qk2DePefC6-27">
          <mxGeometry relative="1" as="geometry" />
        </mxCell>
        <mxCell id="lbC8SEz6f3Qk2DePefC6-14" value="HTTP&lt;div&gt;Hyper Text Transfer Protocl&lt;/div&gt;" style="rounded=0;whiteSpace=wrap;html=1;" vertex="1" parent="1">
          <mxGeometry x="-827" y="990" width="810" height="60" as="geometry" />
        </mxCell>
        <mxCell id="lbC8SEz6f3Qk2DePefC6-17" value="" style="sketch=0;html=1;aspect=fixed;strokeColor=none;shadow=0;fillColor=#3B8DF1;verticalAlign=top;labelPosition=center;verticalLabelPosition=bottom;shape=mxgraph.gcp2.cloud_computer" vertex="1" parent="1">
          <mxGeometry x="-980" y="1070" width="100" height="88" as="geometry" />
        </mxCell>
        <mxCell id="lbC8SEz6f3Qk2DePefC6-38" style="edgeStyle=orthogonalEdgeStyle;rounded=0;orthogonalLoop=1;jettySize=auto;html=1;" edge="1" parent="1" source="lbC8SEz6f3Qk2DePefC6-18" target="lbC8SEz6f3Qk2DePefC6-14">
          <mxGeometry relative="1" as="geometry" />
        </mxCell>
        <mxCell id="lbC8SEz6f3Qk2DePefC6-18" value="TCP / IP&lt;div&gt;Transfer Control Protocol / Internet Protocol&lt;/div&gt;" style="rounded=0;whiteSpace=wrap;html=1;" vertex="1" parent="1">
          <mxGeometry x="-827" y="1098" width="817" height="60" as="geometry" />
        </mxCell>
        <mxCell id="lbC8SEz6f3Qk2DePefC6-19" value="Regelwerk" style="shape=note;whiteSpace=wrap;html=1;backgroundOutline=1;darkOpacity=0.05;" vertex="1" parent="1">
          <mxGeometry x="-70" y="1080" width="80" height="100" as="geometry" />
        </mxCell>
        <mxCell id="lbC8SEz6f3Qk2DePefC6-20" value="Regelwerk" style="shape=note;whiteSpace=wrap;html=1;backgroundOutline=1;darkOpacity=0.05;" vertex="1" parent="1">
          <mxGeometry x="-70" y="970" width="80" height="100" as="geometry" />
        </mxCell>
        <mxCell id="lbC8SEz6f3Qk2DePefC6-21" value="&lt;font style=&quot;font-size: 26px;&quot;&gt;0.0.0.0 - 255.255.255.255&lt;/font&gt;" style="text;html=1;align=center;verticalAlign=middle;whiteSpace=wrap;rounded=0;" vertex="1" parent="1">
          <mxGeometry x="-1240" y="1080" width="270" height="120" as="geometry" />
        </mxCell>
        <mxCell id="lbC8SEz6f3Qk2DePefC6-22" value="&lt;font style=&quot;font-size: 48px;&quot;&gt;0 0 0 0 0 0 0 0&lt;/font&gt;" style="text;html=1;align=center;verticalAlign=middle;whiteSpace=wrap;rounded=0;" vertex="1" parent="1">
          <mxGeometry x="-1260" y="1290" width="380" height="60" as="geometry" />
        </mxCell>
        <mxCell id="lbC8SEz6f3Qk2DePefC6-23" value="&lt;font style=&quot;font-size: 36px;&quot;&gt;128 64 32 16 8 4 2 1&lt;/font&gt;" style="text;html=1;align=center;verticalAlign=middle;whiteSpace=wrap;rounded=0;" vertex="1" parent="1">
          <mxGeometry x="-1300" y="1380" width="460" height="70" as="geometry" />
        </mxCell>
        <mxCell id="lbC8SEz6f3Qk2DePefC6-37" style="edgeStyle=orthogonalEdgeStyle;rounded=0;orthogonalLoop=1;jettySize=auto;html=1;" edge="1" parent="1" source="lbC8SEz6f3Qk2DePefC6-27" target="lbC8SEz6f3Qk2DePefC6-34">
          <mxGeometry relative="1" as="geometry" />
        </mxCell>
        <mxCell id="lbC8SEz6f3Qk2DePefC6-27" value="&lt;div&gt;HTML&lt;/div&gt;Hyper Text Markup Language" style="rounded=0;whiteSpace=wrap;html=1;" vertex="1" parent="1">
          <mxGeometry x="-827" y="870" width="757" height="60" as="geometry" />
        </mxCell>
        <mxCell id="lbC8SEz6f3Qk2DePefC6-28" value="Regelwerk" style="shape=note;whiteSpace=wrap;html=1;backgroundOutline=1;darkOpacity=0.05;" vertex="1" parent="1">
          <mxGeometry x="-70" y="840" width="80" height="100" as="geometry" />
        </mxCell>
        <mxCell id="lbC8SEz6f3Qk2DePefC6-29" value="Firefox" style="rounded=0;whiteSpace=wrap;html=1;" vertex="1" parent="1">
          <mxGeometry x="-810" y="810" width="120" height="60" as="geometry" />
        </mxCell>
        <mxCell id="lbC8SEz6f3Qk2DePefC6-30" value="Chrome" style="rounded=0;whiteSpace=wrap;html=1;" vertex="1" parent="1">
          <mxGeometry x="-640" y="810" width="120" height="60" as="geometry" />
        </mxCell>
        <mxCell id="lbC8SEz6f3Qk2DePefC6-31" value="Safari" style="rounded=0;whiteSpace=wrap;html=1;" vertex="1" parent="1">
          <mxGeometry x="-500" y="810" width="120" height="60" as="geometry" />
        </mxCell>
        <mxCell id="lbC8SEz6f3Qk2DePefC6-32" value="Edge" style="rounded=0;whiteSpace=wrap;html=1;" vertex="1" parent="1">
          <mxGeometry x="-360" y="810" width="120" height="60" as="geometry" />
        </mxCell>
        <mxCell id="lbC8SEz6f3Qk2DePefC6-43" style="edgeStyle=orthogonalEdgeStyle;rounded=0;orthogonalLoop=1;jettySize=auto;html=1;" edge="1" parent="1" source="lbC8SEz6f3Qk2DePefC6-34" target="lbC8SEz6f3Qk2DePefC6-42">
          <mxGeometry relative="1" as="geometry" />
        </mxCell>
        <mxCell id="lbC8SEz6f3Qk2DePefC6-34" value="" style="strokeWidth=1;shadow=0;dashed=0;align=center;html=1;shape=mxgraph.mockup.containers.browserWindow;rSize=0;strokeColor=#666666;strokeColor2=#008cff;strokeColor3=#c4c4c4;mainText=,;recursiveResize=0;" vertex="1" parent="1">
          <mxGeometry x="-1225" y="760" width="330" height="250" as="geometry" />
        </mxCell>
        <mxCell id="lbC8SEz6f3Qk2DePefC6-35" value="Page 1" style="strokeWidth=1;shadow=0;dashed=0;align=center;html=1;shape=mxgraph.mockup.containers.anchor;fontSize=17;fontColor=#666666;align=left;whiteSpace=wrap;" vertex="1" parent="lbC8SEz6f3Qk2DePefC6-34">
          <mxGeometry x="60" y="12" width="110" height="26" as="geometry" />
        </mxCell>
        <mxCell id="lbC8SEz6f3Qk2DePefC6-36" value="https://www.draw.io" style="strokeWidth=1;shadow=0;dashed=0;align=center;html=1;shape=mxgraph.mockup.containers.anchor;rSize=0;fontSize=17;fontColor=#666666;align=left;" vertex="1" parent="lbC8SEz6f3Qk2DePefC6-34">
          <mxGeometry x="130" y="60" width="250" height="26" as="geometry" />
        </mxCell>
        <mxCell id="lbC8SEz6f3Qk2DePefC6-41" value="/var/www/html/&lt;div&gt;&lt;span style=&quot;white-space: pre;&quot;&gt;&#x9;&lt;/span&gt;&lt;span style=&quot;white-space: pre;&quot;&gt;&#x9;&lt;/span&gt;&lt;span style=&quot;white-space: pre;&quot;&gt;&#x9;&lt;/span&gt;website1&lt;/div&gt;&lt;div&gt;&lt;span style=&quot;white-space: pre;&quot;&gt;&lt;span style=&quot;white-space: pre;&quot;&gt;&#x9;&lt;/span&gt;&lt;span style=&quot;white-space: pre;&quot;&gt;&#x9;&lt;/span&gt;&#x9;&lt;/span&gt;&lt;span style=&quot;white-space: pre;&quot;&gt;&#x9;&lt;/span&gt;&lt;span style=&quot;white-space: pre;&quot;&gt;&#x9;&lt;/span&gt;index.html&lt;br&gt;&lt;/div&gt;&lt;div&gt;&lt;span style=&quot;white-space: pre;&quot;&gt;&#x9;&#x9;&lt;/span&gt;&lt;span style=&quot;white-space: pre;&quot;&gt;&#x9;&lt;/span&gt;&amp;lt;a href=&quot;about.html&quot;&amp;gt;about&amp;lt;/a&amp;gt;&lt;br&gt;&lt;/div&gt;&lt;div&gt;&amp;lt;img src=&quot;meinbild.jpg&quot;&amp;gt;&lt;/div&gt;&lt;div&gt;&lt;span style=&quot;white-space: pre;&quot;&gt;&lt;span style=&quot;white-space: pre;&quot;&gt;&#x9;&lt;/span&gt;&lt;span style=&quot;white-space: pre;&quot;&gt;&#x9;&lt;/span&gt;&#x9;&lt;/span&gt;website2&lt;br&gt;&lt;div&gt;&lt;span style=&quot;white-space: pre;&quot;&gt;&#x9;&lt;/span&gt;&lt;span style=&quot;white-space: pre;&quot;&gt;&#x9;&lt;/span&gt;&lt;span style=&quot;white-space: pre;&quot;&gt;&#x9;&lt;/span&gt;&lt;span style=&quot;white-space: pre;&quot;&gt;&#x9;&lt;/span&gt;&lt;span style=&quot;white-space: pre;&quot;&gt;&#x9;&lt;/span&gt;index.html&lt;/div&gt;&lt;div&gt;&lt;span style=&quot;white-space: pre;&quot;&gt;&lt;span style=&quot;white-space: pre;&quot;&gt;&#x9;&lt;/span&gt;&#x9;&lt;/span&gt;&lt;span style=&quot;white-space: pre;&quot;&gt;&#x9;&lt;/span&gt;&lt;span style=&quot;white-space: pre;&quot;&gt;&#x9;&lt;span style=&quot;white-space: pre;&quot;&gt;&#x9;&lt;/span&gt;&lt;span style=&quot;white-space: pre;&quot;&gt;&#x9;&lt;/span&gt;&lt;/span&gt;impressum.html&lt;br&gt;&lt;/div&gt;&lt;div&gt;&lt;span style=&quot;white-space: pre;&quot;&gt;&#x9;&lt;span style=&quot;white-space: pre;&quot;&gt;&#x9;&lt;/span&gt;&#x9;&lt;/span&gt;&lt;span style=&quot;white-space: pre;&quot;&gt;&#x9;&lt;/span&gt;&lt;span style=&quot;white-space: pre;&quot;&gt;&#x9;&lt;/span&gt;about.html&lt;br&gt;&lt;/div&gt;&lt;div&gt;&lt;br&gt;&lt;/div&gt;&lt;div&gt;&lt;br&gt;&lt;div&gt;&lt;br&gt;&lt;/div&gt;&lt;/div&gt;&lt;/div&gt;" style="rounded=0;whiteSpace=wrap;html=1;" vertex="1" parent="lbC8SEz6f3Qk2DePefC6-34">
          <mxGeometry y="110" width="330" height="140" as="geometry" />
        </mxCell>
        <mxCell id="lbC8SEz6f3Qk2DePefC6-40" style="edgeStyle=orthogonalEdgeStyle;rounded=0;orthogonalLoop=1;jettySize=auto;html=1;entryX=1;entryY=0.25;entryDx=0;entryDy=0;" edge="1" parent="1" source="lbC8SEz6f3Qk2DePefC6-29" target="lbC8SEz6f3Qk2DePefC6-29">
          <mxGeometry relative="1" as="geometry" />
        </mxCell>
        <mxCell id="lbC8SEz6f3Qk2DePefC6-42" value="local storage" style="shape=cylinder3;whiteSpace=wrap;html=1;boundedLbl=1;backgroundOutline=1;size=15;" vertex="1" parent="1">
          <mxGeometry x="-1390" y="810" width="60" height="80" as="geometry" />
        </mxCell>
        <mxCell id="lbC8SEz6f3Qk2DePefC6-44" value="/www.meine-website.de/cookies&lt;div&gt;/&lt;/div&gt;" style="rounded=0;whiteSpace=wrap;html=1;" vertex="1" parent="1">
          <mxGeometry x="-1440" y="930" width="190" height="60" as="geometry" />
        </mxCell>
        <mxCell id="lbC8SEz6f3Qk2DePefC6-45" value="" style="strokeWidth=1;shadow=0;dashed=0;align=center;html=1;shape=mxgraph.mockup.containers.browserWindow;rSize=0;strokeColor=#666666;strokeColor2=#008cff;strokeColor3=#c4c4c4;mainText=,;recursiveResize=0;" vertex="1" parent="1">
          <mxGeometry x="-1215" y="770" width="330" height="250" as="geometry" />
        </mxCell>
        <mxCell id="lbC8SEz6f3Qk2DePefC6-46" value="Page 1" style="strokeWidth=1;shadow=0;dashed=0;align=center;html=1;shape=mxgraph.mockup.containers.anchor;fontSize=17;fontColor=#666666;align=left;whiteSpace=wrap;" vertex="1" parent="lbC8SEz6f3Qk2DePefC6-45">
          <mxGeometry x="60" y="12" width="110" height="26" as="geometry" />
        </mxCell>
        <mxCell id="lbC8SEz6f3Qk2DePefC6-47" value="https://www.draw.io" style="strokeWidth=1;shadow=0;dashed=0;align=center;html=1;shape=mxgraph.mockup.containers.anchor;rSize=0;fontSize=17;fontColor=#666666;align=left;" vertex="1" parent="lbC8SEz6f3Qk2DePefC6-45">
          <mxGeometry x="130" y="60" width="250" height="26" as="geometry" />
        </mxCell>
        <mxCell id="lbC8SEz6f3Qk2DePefC6-48" value="/var/www/html/&lt;div&gt;&lt;span style=&quot;white-space: pre;&quot;&gt;&#x9;&lt;/span&gt;&lt;span style=&quot;white-space: pre;&quot;&gt;&#x9;&lt;/span&gt;&lt;span style=&quot;white-space: pre;&quot;&gt;&#x9;&lt;/span&gt;website1&lt;/div&gt;&lt;div&gt;&lt;span style=&quot;white-space: pre;&quot;&gt;&lt;span style=&quot;white-space: pre;&quot;&gt;&#x9;&lt;/span&gt;&lt;span style=&quot;white-space: pre;&quot;&gt;&#x9;&lt;/span&gt;&#x9;&lt;/span&gt;&lt;span style=&quot;white-space: pre;&quot;&gt;&#x9;&lt;/span&gt;&lt;span style=&quot;white-space: pre;&quot;&gt;&#x9;&lt;/span&gt;index.html&lt;br&gt;&lt;/div&gt;&lt;div&gt;&lt;span style=&quot;white-space: pre;&quot;&gt;&#x9;&#x9;&lt;/span&gt;&lt;span style=&quot;white-space: pre;&quot;&gt;&#x9;&lt;/span&gt;&amp;lt;a href=&quot;about.html&quot;&amp;gt;about&amp;lt;/a&amp;gt;&lt;br&gt;&lt;/div&gt;&lt;div&gt;&amp;lt;img src=&quot;meinbild.jpg&quot;&amp;gt;&lt;/div&gt;&lt;div&gt;&lt;span style=&quot;white-space: pre;&quot;&gt;&lt;span style=&quot;white-space: pre;&quot;&gt;&#x9;&lt;/span&gt;&lt;span style=&quot;white-space: pre;&quot;&gt;&#x9;&lt;/span&gt;&#x9;&lt;/span&gt;website2&lt;br&gt;&lt;div&gt;&lt;span style=&quot;white-space: pre;&quot;&gt;&#x9;&lt;/span&gt;&lt;span style=&quot;white-space: pre;&quot;&gt;&#x9;&lt;/span&gt;&lt;span style=&quot;white-space: pre;&quot;&gt;&#x9;&lt;/span&gt;&lt;span style=&quot;white-space: pre;&quot;&gt;&#x9;&lt;/span&gt;&lt;span style=&quot;white-space: pre;&quot;&gt;&#x9;&lt;/span&gt;index.html&lt;/div&gt;&lt;div&gt;&lt;span style=&quot;white-space: pre;&quot;&gt;&lt;span style=&quot;white-space: pre;&quot;&gt;&#x9;&lt;/span&gt;&#x9;&lt;/span&gt;&lt;span style=&quot;white-space: pre;&quot;&gt;&#x9;&lt;/span&gt;&lt;span style=&quot;white-space: pre;&quot;&gt;&#x9;&lt;span style=&quot;white-space: pre;&quot;&gt;&#x9;&lt;/span&gt;&lt;span style=&quot;white-space: pre;&quot;&gt;&#x9;&lt;/span&gt;&lt;/span&gt;impressum.html&lt;br&gt;&lt;/div&gt;&lt;div&gt;&lt;span style=&quot;white-space: pre;&quot;&gt;&#x9;&lt;span style=&quot;white-space: pre;&quot;&gt;&#x9;&lt;/span&gt;&#x9;&lt;/span&gt;&lt;span style=&quot;white-space: pre;&quot;&gt;&#x9;&lt;/span&gt;&lt;span style=&quot;white-space: pre;&quot;&gt;&#x9;&lt;/span&gt;about.html&lt;br&gt;&lt;/div&gt;&lt;div&gt;&lt;br&gt;&lt;/div&gt;&lt;div&gt;&lt;br&gt;&lt;div&gt;&lt;br&gt;&lt;/div&gt;&lt;/div&gt;&lt;/div&gt;" style="rounded=0;whiteSpace=wrap;html=1;" vertex="1" parent="lbC8SEz6f3Qk2DePefC6-45">
          <mxGeometry y="110" width="330" height="140" as="geometry" />
        </mxCell>
      </root>
    </mxGraphModel>
  </diagram>
</mxfile>
